<svg width="500" height="500" viewBox="0 0 500 500" fill="#2563EB" xmlns="http://www.w3.org/2000/svg">
<path d="M250 249.925C342.662 -35.4085 157.338 -35.4085 250 249.925C157.338 -35.4085 7.38218 73.5689 250 249.925C7.38218 73.5689 -49.8795 249.925 250 249.925C7.38218 426.281 -49.8795 249.925 250 249.925C157.338 535.258 7.38218 426.281 250 249.925C342.662 535.258 157.338 535.258 250 249.925C492.618 426.281 342.662 535.258 250 249.925C549.879 249.925 492.618 426.281 250 249.925C549.879 249.925 492.618 73.5689 250 249.925C492.618 73.5689 342.662 -35.4085 250 249.925Z" fill="#2563EB"/>
</svg>
