<svg width="500" height="500" viewBox="0 0 500 500" fill="#2563EB" xmlns="http://www.w3.org/2000/svg">
<path d="M205.835 284.284C230.073 308.522 269.371 308.522 293.609 284.284M296.271 209.364H296.116M203.173 209.364H203.018" stroke="#2563EB" stroke-width="31.0328" stroke-linecap="round" stroke-linejoin="round"/>
<path d="M248.884 34.6963C277.542 63.3543 293.642 102.222 293.644 142.751C293.644 142.752 293.643 142.754 293.643 142.756C293.644 142.754 293.647 142.753 293.648 142.751C322.308 114.092 361.178 97.9913 401.708 97.9912C401.708 138.522 385.608 177.392 356.948 206.052C356.947 206.053 356.945 206.054 356.943 206.056H356.945C397.474 206.057 436.342 222.158 465 250.815C436.341 279.471 397.472 295.568 356.944 295.567C356.946 295.569 356.947 295.57 356.948 295.571C385.608 324.231 401.708 363.101 401.708 403.632C361.178 403.632 322.308 387.53 293.648 358.871C293.646 358.869 293.645 358.867 293.643 358.865C293.643 358.867 293.644 358.869 293.644 358.871C293.645 399.4 277.547 438.27 248.891 466.93C220.232 438.272 204.132 399.403 204.131 358.874C204.131 358.871 204.131 358.869 204.131 358.866C204.129 358.868 204.128 358.87 204.127 358.871C175.468 387.53 136.597 403.632 96.0664 403.632C96.0664 363.101 112.167 324.231 140.826 295.571C140.828 295.57 140.829 295.568 140.83 295.566L140.827 295.567C100.298 295.566 61.4296 279.466 32.7715 250.808C61.4313 222.151 100.301 206.054 140.829 206.055C140.828 206.054 140.827 206.053 140.826 206.052C112.167 177.392 96.0664 138.522 96.0664 97.9912C136.597 97.9912 175.468 114.092 204.127 142.751C204.128 142.752 204.13 142.754 204.131 142.755V142.754C204.13 102.225 220.228 63.3562 248.884 34.6963ZM248.887 250.812C248.885 250.812 248.883 250.811 248.881 250.811L248.882 250.812C248.883 250.812 248.885 250.812 248.887 250.812C248.887 250.814 248.886 250.816 248.886 250.818L248.888 250.82C248.888 250.817 248.888 250.814 248.888 250.812H248.89L248.889 250.811L248.888 250.812V250.81L248.887 250.809L248.888 250.807L248.886 250.805C248.886 250.807 248.887 250.809 248.887 250.812Z" fill="#2563EB"/>
</svg>
