<svg width="500" height="500" viewBox="0 0 500 500" fill="#2563EB" xmlns="http://www.w3.org/2000/svg">
<path d="M389.369 191.116C425.072 191.116 454.016 217.687 454.016 250.464C454.015 283.24 425.072 309.812 389.369 309.812C384.499 309.812 379.755 309.317 375.193 308.38C324.002 302.415 262.748 260.425 251.351 252.339C258.985 263.099 296.822 318.273 306.061 367.478C308.531 374.589 309.885 382.299 309.885 390.354C309.885 426.056 283.313 454.999 250.537 455C217.76 455 191.19 426.057 191.189 390.354C191.189 385.48 191.685 380.732 192.623 376.167C198.592 324.992 240.554 263.764 248.655 252.345C237.237 260.446 176.001 302.415 124.823 308.38C120.261 309.317 115.516 309.811 110.646 309.812C74.9434 309.812 46.0004 283.24 46 250.464C46 217.687 74.9432 191.116 110.646 191.116C118.702 191.116 126.415 192.47 133.527 194.941C185.191 204.643 243.434 245.867 249.938 250.559C249.984 250.495 250.008 250.463 250.008 250.463C250.011 250.467 250.033 250.5 250.076 250.559C256.577 245.869 314.824 204.643 366.489 194.941C373.602 192.47 381.313 191.116 389.369 191.116ZM249.478 45.9248C282.254 45.9248 308.825 74.8691 308.825 110.572C308.825 115.444 308.33 120.19 307.393 124.753C300.792 181.374 250.124 250.304 250.007 250.463C249.896 250.312 204.226 188.18 193.952 133.441C191.483 126.332 190.13 118.624 190.13 110.572C190.13 74.8693 216.701 45.9251 249.478 45.9248Z" fill="#2563EB"/>
</svg>
