<svg width="273" height="280" viewBox="0 0 273 280" fill="#2563EB" xmlns="http://www.w3.org/2000/svg">
<path d="M129.713 4.35254C131.429 -1.41401 139.579 -1.46384 141.365 4.28125L152.794 41.0518C154.192 45.5476 159.946 46.8239 163.114 43.3408L189.02 14.8525C193.068 10.4018 200.431 13.8928 199.547 19.8438L193.892 57.9316C193.201 62.5889 197.83 66.2353 202.196 64.4717L237.897 50.0459C243.475 47.7919 248.596 54.132 245.217 59.1104L223.595 90.9717C220.951 94.8678 223.541 100.163 228.24 100.468L266.665 102.96C272.668 103.349 274.53 111.283 269.327 114.303L236.022 133.628C231.949 135.991 231.985 141.885 236.086 144.198L269.625 163.116C274.864 166.072 273.1 174.028 267.101 174.49L228.709 177.451C224.015 177.813 221.491 183.139 224.182 187.003L246.19 218.599C249.629 223.535 244.587 229.938 238.982 227.752L203.108 213.763C198.721 212.052 194.135 215.755 194.883 220.403L201.003 258.419C201.96 264.359 194.639 267.939 190.538 263.538L164.286 235.369C161.075 231.925 155.338 233.271 153.996 237.784L143.015 274.69C141.299 280.457 133.15 280.507 131.364 274.762L119.934 237.992C118.536 233.496 112.783 232.22 109.615 235.703L83.7085 264.19C79.6607 268.641 72.2975 265.15 73.1812 259.199L78.8364 221.111C79.5279 216.454 74.8981 212.808 70.5327 214.571L34.8315 228.998C29.2534 231.252 24.134 224.912 27.5122 219.934L49.1333 188.071C51.7771 184.175 49.1874 178.881 44.4888 178.576L6.06396 176.083C0.0604036 175.693 -1.80165 167.76 3.40186 164.74L36.7065 145.415C40.7791 143.052 40.7432 137.158 36.6421 134.845L3.104 115.928C-2.13599 112.972 -0.370991 105.016 5.62744 104.553L44.019 101.592C48.7136 101.23 51.2386 95.9036 48.5474 92.04L26.5386 60.4443C23.1 55.5076 28.1414 49.1063 33.7466 51.292L69.6216 65.2803C74.0083 66.9908 78.5936 63.2883 77.8452 58.6396L71.7251 20.624C70.7688 14.6841 78.0891 11.1035 82.1909 15.5049L108.443 43.6738C111.653 47.1184 117.391 45.7718 118.734 41.2588L129.713 4.35254ZM108.773 151.178C105.441 145.906 98.465 144.334 93.1929 147.666C87.9207 150.998 86.3478 157.974 89.6802 163.246C106.464 189.799 141.581 197.684 168.106 180.856C173.373 177.515 174.933 170.538 171.592 165.271C168.251 160.005 161.273 158.444 156.006 161.785C140.027 171.923 118.884 167.174 108.773 151.178ZM178.388 106.987C172.303 105.621 166.262 109.446 164.895 115.531C163.528 121.617 167.354 127.658 173.44 129.024L173.55 129.05C179.636 130.416 185.677 126.59 187.043 120.505C188.41 114.419 184.585 108.378 178.5 107.012L178.388 106.987ZM111.747 92.0225C105.661 90.6561 99.6199 94.481 98.2534 100.566C96.8869 106.652 100.713 112.693 106.798 114.06L106.91 114.085C112.995 115.451 119.036 111.625 120.403 105.54C121.769 99.4546 117.943 93.4134 111.858 92.0469L111.747 92.0225Z" fill="#2563EB"/>
</svg>
